<svg xmlns="http://www.w3.org/2000/svg" xmlns:xlink="http://www.w3.org/1999/xlink" width="500" zoomAndPan="magnify" viewBox="0 0 375 374.999991" height="500" preserveAspectRatio="xMidYMid meet" version="1.0"><defs><clipPath id="ccb7574c71"><path d="M 220 137 L 272.53125 137 L 272.53125 168 L 220 168 Z M 220 137 " clip-rule="nonzero"/></clipPath><clipPath id="1b771ad88d"><path d="M 102.28125 33 L 272.53125 33 L 272.53125 265 L 102.28125 265 Z M 102.28125 33 " clip-rule="nonzero"/></clipPath><clipPath id="d6425c0ce1"><path d="M 119 158 L 272.53125 158 L 272.53125 289 L 119 289 Z M 119 158 " clip-rule="nonzero"/></clipPath><clipPath id="b13cd9c72f"><path d="M 173 28.378906 L 201 28.378906 L 201 40 L 173 40 Z M 173 28.378906 " clip-rule="nonzero"/></clipPath><clipPath id="1b26441694"><path d="M 126 318 L 149 318 L 149 332.878906 L 126 332.878906 Z M 126 318 " clip-rule="nonzero"/></clipPath><clipPath id="5cf793a40b"><path d="M 226 318 L 249 318 L 249 332.878906 L 226 332.878906 Z M 226 318 " clip-rule="nonzero"/></clipPath></defs><rect x="-37.5" width="450" fill="#ffffff" y="-37.499999" height="449.999989" fill-opacity="1"/><rect x="-37.5" width="450" fill="#ffffff" y="-37.499999" height="449.999989" fill-opacity="1"/><rect x="-37.5" width="450" fill="#ffb154" y="-37.499999" height="449.999989" fill-opacity="1"/><g clip-path="url(#ccb7574c71)"><path fill="#ffffff" d="M 272.523438 167.902344 L 272.523438 143.367188 C 266.699219 143.636719 260.820312 144.449219 254.945312 145.960938 L 248.367188 137.53125 L 250.253906 147.257812 C 246.476562 148.449219 242.648438 149.90625 238.820312 151.746094 L 232.40625 144.609375 L 234.667969 153.851562 C 230.085938 156.285156 225.503906 159.203125 220.863281 162.660156 C 232.296875 155.851562 256.128906 145.746094 272.523438 167.902344 Z M 272.523438 167.902344 " fill-opacity="1" fill-rule="nonzero"/></g><g clip-path="url(#1b771ad88d)"><path fill="#ffffff" d="M 215.417969 167.523438 C 209.378906 172.65625 204.257812 177.84375 199.996094 183.195312 L 191.3125 179.304688 L 197.136719 186.921875 C 194.65625 190.378906 192.5 193.839844 190.613281 197.351562 L 181.390625 193.675781 L 188.457031 201.730469 C 185.113281 208.96875 182.957031 216.320312 181.609375 223.777344 C 163.921875 184.167969 194.28125 171.359375 209.433594 167.523438 C 203.71875 168.386719 198.378906 169.578125 193.472656 171.089844 L 188.511719 162.984375 L 189.050781 172.546875 C 185.058594 174.007812 181.339844 175.628906 177.832031 177.464844 L 172.386719 169.144531 L 173.679688 179.734375 C 166.832031 183.84375 160.902344 188.707031 155.671875 194.109375 C 164.027344 147.152344 202.261719 159.6875 214.070312 164.820312 C 214.015625 164.765625 214.015625 164.660156 213.960938 164.550781 C 208.191406 159.796875 202.476562 155.960938 196.816406 152.824219 L 199.132812 143.585938 L 192.664062 150.664062 C 188.832031 148.824219 185.058594 147.3125 181.285156 146.070312 L 183.28125 136.34375 L 176.648438 144.71875 C 168.9375 142.664062 161.332031 141.800781 153.785156 141.800781 C 183.117188 121.863281 200.425781 136.828125 209.269531 150.773438 C 205.65625 134.667969 207.277344 111.757812 242.109375 105.054688 C 236.773438 110.40625 232.027344 116.402344 228.035156 123.320312 L 217.414062 122.132812 L 225.71875 127.589844 C 223.9375 131.15625 222.320312 134.882812 220.972656 138.9375 L 211.375 138.558594 L 219.570312 143.421875 C 217.789062 149.636719 216.441406 156.445312 215.742188 163.902344 C 215.796875 164.011719 215.796875 164.066406 215.851562 164.171875 C 220.378906 152.71875 237.09375 119.429688 272.523438 140.019531 L 272.523438 136.34375 C 272.523438 115.539062 255.699219 98.625 234.886719 98.625 L 213.855469 98.625 L 213.855469 49.179688 C 213.855469 42.101562 209.488281 35.996094 203.339844 33.457031 C 203.339844 33.566406 203.339844 33.726562 203.339844 33.835938 C 203.339844 35.78125 202.636719 37.507812 201.507812 38.914062 C 205.386719 40.699219 208.136719 44.640625 208.136719 49.179688 L 208.136719 98.515625 L 166.726562 98.515625 L 166.726562 49.179688 C 166.726562 44.589844 169.421875 40.699219 173.359375 38.914062 C 172.226562 37.5625 171.523438 35.78125 171.523438 33.835938 C 171.523438 33.726562 171.523438 33.566406 171.523438 33.457031 C 165.378906 35.996094 161.007812 42.101562 161.007812 49.179688 L 161.007812 98.515625 L 139.980469 98.515625 C 119.109375 98.515625 102.285156 115.378906 102.285156 136.234375 L 102.285156 264.464844 C 114.363281 253.441406 135.933594 239.445312 172.117188 231.015625 C 238.28125 215.722656 215.417969 167.523438 215.417969 167.523438 Z M 215.417969 167.523438 " fill-opacity="1" fill-rule="nonzero"/></g><path fill="#ffffff" d="M 253.542969 287.863281 C 249.5 285.054688 246.046875 282.621094 238.660156 282.621094 C 231.324219 282.621094 227.820312 285.054688 223.777344 287.863281 C 219.570312 290.78125 214.769531 294.132812 205.605469 294.132812 C 196.4375 294.132812 191.691406 290.78125 187.433594 287.863281 C 183.386719 285.054688 179.9375 282.621094 172.550781 282.621094 C 165.214844 282.621094 161.710938 285.054688 157.664062 287.863281 C 153.460938 290.78125 148.660156 294.132812 139.492188 294.132812 C 130.328125 294.132812 125.582031 290.78125 121.320312 287.863281 C 119.324219 286.460938 117.492188 285.164062 115.226562 284.242188 C 113.070312 286.511719 111.183594 288.78125 109.511719 290.945312 C 116.738281 291.59375 120.890625 294.511719 124.609375 297.105469 C 128.65625 299.914062 132.105469 302.347656 139.492188 302.347656 C 146.882812 302.347656 150.332031 299.914062 154.375 297.105469 C 158.582031 294.1875 163.382812 290.835938 172.550781 290.835938 C 181.714844 290.835938 186.460938 294.1875 190.722656 297.105469 C 194.765625 299.914062 198.214844 302.347656 205.605469 302.347656 C 212.9375 302.347656 216.441406 299.914062 220.488281 297.105469 C 224.691406 294.1875 229.492188 290.835938 238.660156 290.835938 C 247.828125 290.835938 252.570312 294.1875 256.832031 297.105469 C 258.933594 298.5625 260.820312 299.914062 263.25 300.886719 C 265.082031 298.78125 266.699219 296.457031 267.992188 293.96875 C 261.199219 293.214844 257.15625 290.402344 253.542969 287.863281 Z M 253.542969 287.863281 " fill-opacity="1" fill-rule="nonzero"/><g clip-path="url(#d6425c0ce1)"><path fill="#ffffff" d="M 259.90625 171.953125 L 259.203125 161.308594 L 255.320312 170.441406 C 251.546875 169.304688 247.558594 168.386719 243.351562 167.683594 L 242.058594 158.175781 L 238.714844 167.089844 C 232.296875 166.386719 225.339844 166.28125 217.898438 166.875 C 223.292969 174.925781 248.90625 219.5625 177.242188 246.417969 C 149.578125 256.792969 131.511719 268.734375 119.703125 279.921875 C 121.589844 280.945312 123.261719 282.082031 124.773438 283.164062 C 128.816406 285.972656 132.269531 288.40625 139.65625 288.40625 C 147.042969 288.40625 150.492188 285.972656 154.539062 283.164062 C 158.746094 280.246094 163.542969 276.894531 172.710938 276.894531 C 181.878906 276.894531 186.621094 280.246094 190.882812 283.164062 C 194.925781 285.972656 198.378906 288.40625 205.765625 288.40625 C 213.101562 288.40625 216.605469 285.972656 220.648438 283.164062 C 224.855469 280.246094 229.652344 276.894531 238.820312 276.894531 C 247.988281 276.894531 252.734375 280.246094 256.992188 283.164062 C 260.769531 285.8125 264.113281 288.132812 270.636719 288.40625 C 271.984375 284.566406 272.683594 280.40625 272.683594 276.082031 L 272.683594 177.734375 C 268.535156 175.519531 264.382812 173.574219 259.90625 171.953125 Z M 259.90625 171.953125 " fill-opacity="1" fill-rule="nonzero"/></g><path fill="#ffffff" d="M 253.542969 301.804688 C 249.5 298.996094 246.046875 296.5625 238.660156 296.5625 C 231.324219 296.5625 227.820312 298.996094 223.777344 301.804688 C 219.570312 304.722656 214.769531 308.074219 205.605469 308.074219 C 196.4375 308.074219 191.691406 304.722656 187.433594 301.804688 C 183.386719 298.996094 179.9375 296.5625 172.550781 296.5625 C 165.214844 296.5625 161.710938 298.996094 157.664062 301.804688 C 153.460938 304.722656 148.660156 308.074219 139.492188 308.074219 C 130.328125 308.074219 125.582031 304.722656 121.320312 301.804688 C 117.601562 299.210938 114.363281 296.941406 108.164062 296.617188 C 114.851562 306.9375 126.496094 313.800781 139.710938 313.800781 L 234.667969 313.800781 C 243.78125 313.800781 252.140625 310.558594 258.609375 305.15625 C 256.886719 304.128906 255.160156 302.941406 253.542969 301.804688 Z M 253.542969 301.804688 " fill-opacity="1" fill-rule="nonzero"/><g clip-path="url(#b13cd9c72f)"><path fill="#ffffff" d="M 179.398438 39.347656 L 195.414062 39.347656 C 198.433594 39.347656 200.859375 36.914062 200.859375 33.890625 C 200.859375 30.863281 198.433594 28.429688 195.414062 28.429688 L 179.398438 28.429688 C 176.378906 28.429688 173.949219 30.863281 173.949219 33.890625 C 173.949219 36.859375 176.378906 39.347656 179.398438 39.347656 Z M 179.398438 39.347656 " fill-opacity="1" fill-rule="nonzero"/></g><g clip-path="url(#1b26441694)"><path fill="#ffffff" d="M 126.335938 318.125 L 126.335938 321.851562 C 126.335938 327.960938 131.242188 332.878906 137.335938 332.878906 C 143.429688 332.878906 148.335938 327.960938 148.335938 321.851562 L 148.335938 320.394531 L 139.925781 320.394531 C 135.179688 320.339844 130.597656 319.582031 126.335938 318.125 Z M 126.335938 318.125 " fill-opacity="1" fill-rule="nonzero"/></g><g clip-path="url(#5cf793a40b)"><path fill="#ffffff" d="M 226.472656 320.339844 L 226.472656 321.800781 C 226.472656 327.90625 231.378906 332.824219 237.472656 332.824219 C 243.566406 332.824219 248.472656 327.90625 248.472656 321.800781 L 248.472656 318.070312 C 244.214844 319.53125 239.628906 320.285156 234.886719 320.285156 L 226.472656 320.285156 Z M 226.472656 320.339844 " fill-opacity="1" fill-rule="nonzero"/></g></svg>